<?xml version="1.0" standalone="no"?>
<!DOCTYPE svg PUBLIC "-//W3C//DTD SVG 20010904//EN"
 "http://www.w3.org/TR/2001/REC-SVG-20010904/DTD/svg10.dtd">
<svg version="1.0" xmlns="http://www.w3.org/2000/svg"
 width="248.000000pt" height="33.000000pt" viewBox="0 0 248.000000 33.000000"
 preserveAspectRatio="xMidYMid meet">

<g transform="translate(0.000000,33.000000) scale(0.100000,-0.100000)"
fill="#000000" stroke="none">
<path d="M160 165 l0 -165 35 0 35 0 0 60 0 60 51 0 c43 0 55 5 80 29 33 34
39 83 14 130 -18 37 -60 51 -146 51 l-69 0 0 -165z m131 95 c21 -12 25 -50 7
-68 -7 -7 -25 -12 -40 -12 -27 0 -28 2 -28 45 0 39 3 45 21 45 11 0 29 -5 40
-10z"/>
<path d="M440 165 l0 -165 35 0 35 0 0 70 0 70 70 0 70 0 0 -70 0 -70 35 0 35
0 0 165 0 165 -35 0 -34 0 -3 -62 -3 -63 -65 0 -65 0 -3 63 -3 62 -34 0 -35 0
0 -165z"/>
<path d="M790 165 l0 -165 95 0 95 0 0 36 0 36 -55 -4 -55 -3 0 38 0 37 50 0
c49 0 50 1 50 30 0 29 -1 30 -50 30 l-50 0 0 35 0 35 55 0 c54 0 55 0 55 30
l0 30 -95 0 -95 0 0 -165z"/>
<path d="M1040 165 l0 -165 41 0 40 0 -3 104 c-2 57 0 103 3 101 3 -2 43 -49
90 -105 75 -89 87 -100 116 -100 l33 0 0 165 0 165 -41 0 -40 0 3 -105 c2 -58
2 -105 1 -105 -1 0 -41 47 -89 105 -79 95 -90 105 -120 105 l-34 0 0 -165z"/>
<path d="M1513 311 c-90 -42 -119 -164 -59 -246 14 -20 15 -20 41 5 22 21 29
22 45 12 11 -7 36 -12 56 -12 71 0 121 90 80 146 -14 18 -18 16 -86 -51 -78
-78 -90 -77 -90 3 0 34 6 48 26 67 29 27 80 33 116 14 16 -9 24 -7 42 10 29
28 33 27 56 -11 24 -39 27 -116 6 -156 -19 -37 -58 -71 -92 -82 -20 -6 6 -9
89 -9 l117 -1 0 135 0 135 -35 0 c-32 0 -35 2 -35 30 0 36 -23 40 -56 9 -21
-20 -23 -20 -47 -4 -41 26 -125 29 -174 6z"/>
<path d="M2010 300 c0 -28 -3 -30 -35 -30 l-35 0 0 -136 0 -135 27 3 c25 3 32
15 85 147 81 201 79 181 14 181 -56 0 -56 0 -56 -30z"/>
<path d="M2200 321 c0 -4 27 -75 59 -157 l60 -149 0 158 1 157 -60 0 c-33 0
-60 -4 -60 -9z"/>
<path d="M2141 183 c-8 -21 -16 -44 -18 -50 -4 -9 7 -13 35 -13 l40 0 -16 50
c-9 28 -19 50 -22 50 -3 0 -12 -17 -19 -37z"/>
<path d="M2081 30 l-10 -30 85 0 c46 0 84 2 84 4 0 3 -4 16 -10 30 -9 24 -14
26 -74 26 -62 0 -64 -1 -75 -30z"/>
</g>
</svg>
